<svg xmlns="http://www.w3.org/2000/svg" width="817" height="1045" viewBox="0 0 817 1045">
<g>
<path d="M 404.00 923.43 C368.99,927.49 337.79,922.96 313.50,910.29 C291.06,898.59 271.73,881.85 256.01,860.50 C241.43,840.70 232.65,821.79 226.52,797.00 C215.77,753.53 219.40,705.40 237.64,649.53 C249.45,613.37 278.74,560.49 297.92,540.71 C304.55,533.87 312.58,528.22 313.83,529.53 C314.20,529.92 313.64,530.74 312.58,531.37 C299.89,538.85 278.49,570.41 258.98,610.42 C245.57,637.90 237.43,662.21 230.98,694.00 C223.70,729.95 223.92,765.62 231.63,796.50 C241.94,837.80 266.97,873.94 301.28,897.04 C343.44,925.43 399.69,927.05 472.50,901.99 C534.61,880.60 576.42,838.95 599.94,775.03 C608.84,750.84 612.38,730.45 612.34,703.50 C612.28,651.78 599.15,617.38 570.50,593.87 C547.02,574.60 521.47,565.84 457.02,554.95 C444.39,552.82 436.20,552.00 427.52,552.00 C413.69,551.99 403.07,550.44 387.50,546.15 C357.49,537.88 329.02,525.01 310.95,511.54 C296.08,500.45 279.40,481.70 271.51,467.19 C269.95,464.33 268.38,462.00 268.02,462.00 C266.97,462.00 258.08,473.32 248.32,487.09 C238.87,500.41 225.33,522.32 220.10,532.75 C217.15,538.65 214.72,540.56 213.72,537.75 C212.19,533.40 245.00,481.69 261.26,462.84 L 266.14 457.19 L 264.24 453.34 C263.19,451.23 261.04,446.01 259.44,441.75 C257.84,437.49 256.30,434.01 256.02,434.02 C253.70,434.10 220.46,466.21 212.83,475.75 C207.66,482.21 206.34,483.05 205.37,480.51 C203.95,476.83 223.77,455.30 245.87,436.50 C252.50,430.86 254.91,428.22 254.45,427.08 C254.10,426.21 252.94,422.12 251.87,418.00 C250.80,413.88 249.31,408.25 248.56,405.50 C247.82,402.75 246.91,398.81 246.56,396.75 C246.20,394.69 245.37,393.00 244.70,393.01 C242.47,393.02 222.58,402.58 211.50,408.96 C196.28,417.73 184.64,425.81 174.70,434.52 C170.06,438.59 165.97,441.64 165.63,441.30 C163.83,439.50 165.74,436.63 172.75,430.56 C188.15,417.24 213.98,401.42 234.89,392.50 L 244.28 388.50 L 244.46 367.00 C244.70,339.03 247.54,321.89 256.47,294.50 C267.52,260.59 290.83,224.72 311.81,209.31 L 318.20 204.62 L 317.53 197.06 C316.60,186.54 315.48,182.81 310.22,172.58 C305.35,163.14 297.16,153.68 291.15,150.58 C285.20,147.50 278.48,147.16 254.01,148.69 C213.27,151.23 192.56,148.02 168.00,135.34 C150.26,126.19 133.86,112.66 124.53,99.50 C118.27,90.67 116.54,85.21 116.58,74.51 C116.63,63.92 118.90,56.75 125.87,45.15 C138.14,24.73 155.46,16.93 192.00,15.36 C228.88,13.78 268.00,23.08 293.43,39.47 C314.44,53.02 328.25,68.18 341.71,92.50 C350.41,108.22 365.97,144.74 371.96,163.50 C376.59,178.00 375.59,185.95 369.47,183.17 C366.95,182.02 366.19,179.62 368.00,178.50 C370.69,176.84 367.21,164.30 357.09,139.13 C336.38,87.60 321.41,65.37 295.18,47.17 C279.64,36.38 262.76,29.55 239.00,24.45 C228.34,22.16 223.31,21.69 204.84,21.25 C181.83,20.71 171.57,21.59 160.13,25.07 C144.88,29.71 135.91,37.22 128.21,51.79 C114.79,77.15 121.41,96.35 151.25,118.62 C169.27,132.06 185.42,139.20 205.00,142.37 C220.34,144.85 231.10,145.13 255.50,143.68 C279.62,142.25 286.78,142.75 293.66,146.34 C298.35,148.78 307.55,158.64 311.97,165.96 C318.32,176.45 320.22,182.25 320.90,193.10 L 321.50 202.70 L 331.50 197.90 C352.48,187.81 376.85,183.77 394.46,187.46 C401.37,188.90 414.00,194.52 414.00,196.15 C414.00,197.40 412.27,197.19 409.13,195.57 C403.26,192.53 390.16,190.72 378.06,191.26 C350.42,192.51 322.56,204.81 304.19,223.88 C278.79,250.26 260.57,288.89 252.50,333.50 C250.65,343.71 249.23,381.85 250.61,384.18 C251.38,385.46 252.96,385.20 262.00,382.30 C274.62,378.25 300.19,372.51 312.20,371.03 C322.49,369.76 345.81,369.45 351.50,370.51 C355.64,371.28 359.32,373.68 358.47,375.05 C358.20,375.48 356.65,375.17 355.02,374.36 C351.36,372.53 328.93,372.32 315.50,373.99 C299.50,375.97 278.21,380.85 261.50,386.37 L 251.50 389.67 L 251.85 393.09 C252.23,396.81 258.88,423.21 259.63,423.96 C259.89,424.22 260.70,424.00 261.43,423.46 C300.07,395.52 319.70,385.40 347.71,379.01 C352.77,377.85 359.00,378.37 359.00,379.94 C359.00,380.37 356.86,380.98 354.25,381.29 C340.69,382.92 315.13,393.24 296.04,404.80 C287.36,410.06 267.57,424.01 261.70,429.02 C260.93,429.67 263.48,437.19 267.95,447.46 L 270.11 452.42 L 274.25 447.46 C285.50,434.00 317.36,403.19 329.84,393.70 C337.83,387.63 345.92,383.52 347.25,384.85 C348.90,386.50 347.27,389.00 344.14,389.62 C336.98,391.05 305.25,419.47 281.84,445.40 L 272.00 456.31 L 275.66 462.90 C284.70,479.20 300.84,497.35 315.68,507.90 C335.18,521.77 362.76,533.72 393.50,541.62 C401.76,543.74 404.04,544.00 406.62,543.08 C409.08,542.20 412.92,542.41 424.53,544.04 C438.56,546.01 439.84,546.03 449.90,544.55 C469.65,541.65 484.65,536.80 501.86,527.75 C530.31,512.80 547.44,497.12 564.41,470.50 C569.92,461.85 579.00,444.24 579.00,442.19 C579.00,441.04 553.75,431.59 529.37,423.62 C511.66,417.83 496.79,413.99 484.25,411.98 C480.26,411.34 477.00,410.41 477.00,409.91 C477.00,408.33 490.41,408.92 500.14,410.94 C514.16,413.84 541.94,422.56 572.26,433.56 C577.10,435.31 580.38,436.02 580.96,435.44 C582.11,434.28 584.75,424.34 585.60,417.96 L 586.23 413.25 L 582.86 412.75 C581.01,412.48 574.33,410.87 568.00,409.17 C552.51,405.01 539.86,403.26 515.54,401.93 C488.30,400.44 474.10,401.66 462.76,406.47 C461.56,406.98 460.81,406.66 460.35,405.46 C459.48,403.19 461.76,401.54 468.91,399.28 C473.79,397.73 478.39,397.51 505.00,397.59 C531.20,397.67 537.19,397.97 547.50,399.77 C563.81,402.62 576.46,405.67 581.84,408.05 C584.30,409.13 586.51,409.82 586.76,409.57 C587.01,409.32 587.19,403.13 587.15,395.81 C587.08,382.93 584.84,365.44 583.02,363.62 C581.41,362.01 537.98,368.04 507.50,374.10 C484.50,378.67 469.83,382.42 455.18,387.47 C445.02,390.98 441.71,391.26 444.07,388.41 C444.72,387.63 445.63,387.00 446.10,387.00 C446.56,387.00 449.32,385.91 452.22,384.59 C471.03,375.99 521.64,364.96 567.42,359.48 C573.98,358.70 579.75,357.65 580.24,357.16 C580.77,356.63 579.04,351.02 576.04,343.49 C573.23,336.47 568.66,324.15 565.87,316.11 C559.34,297.25 555.95,290.05 546.99,276.00 C533.59,254.99 520.41,237.63 515.37,234.32 C513.17,232.88 512.88,232.92 511.25,234.92 C509.60,236.94 509.37,236.97 507.20,235.44 C505.93,234.54 503.90,231.76 502.70,229.25 C500.55,224.81 500.16,224.54 486.50,218.50 C454.86,204.51 448.91,203.15 426.66,204.86 C418.27,205.51 409.99,205.75 408.26,205.40 C401.91,204.13 399.38,197.12 405.53,197.85 C409.15,198.28 433.24,198.07 441.50,197.54 L 447.50 197.16 L 447.65 190.61 C447.98,176.96 451.05,163.91 458.52,144.50 C470.77,112.69 482.34,94.17 499.34,79.20 C518.92,61.96 540.35,49.91 577.00,35.52 C596.94,27.69 604.49,25.33 619.00,22.35 C630.39,20.01 632.97,19.83 648.00,20.32 C661.07,20.74 666.50,21.36 674.12,23.33 C698.44,29.62 716.27,42.46 723.61,59.00 C726.25,64.95 726.50,66.48 726.49,77.00 C726.48,90.37 724.29,97.97 717.97,106.53 C712.44,114.03 708.13,117.36 696.77,122.94 C676.16,133.05 660.40,135.69 631.38,133.89 C609.37,132.52 595.14,133.59 578.39,137.87 C560.30,142.50 542.02,151.94 532.45,161.59 C518.39,175.77 505.23,203.01 506.17,215.99 C506.47,220.13 506.84,220.66 510.86,222.87 C516.32,225.88 526.89,235.71 532.46,242.96 C538.98,251.45 554.20,274.48 559.80,284.30 C562.56,289.14 567.11,299.69 569.94,307.80 C572.75,315.88 578.08,330.31 581.78,339.87 L 588.50 357.23 L 594.50 356.61 C605.89,355.41 634.52,354.83 640.00,355.68 C644.54,356.38 645.50,356.88 645.50,358.51 C645.50,360.42 644.76,360.50 627.50,360.59 C608.16,360.68 589.98,361.78 590.04,362.84 C590.05,363.20 590.73,366.42 591.54,370.00 C593.74,379.77 594.54,403.03 593.02,413.09 C591.92,420.32 589.67,430.34 587.53,437.50 C587.00,439.29 589.31,440.48 609.72,448.91 C630.40,457.45 639.78,462.21 641.54,465.06 C641.89,465.62 641.62,466.75 640.95,467.56 C639.89,468.84 639.33,468.76 636.62,466.94 C634.90,465.79 630.58,463.47 627.00,461.79 C617.36,457.26 587.83,445.00 586.58,445.01 C585.99,445.02 582.80,450.30 579.50,456.75 C566.85,481.45 551.86,500.19 532.00,516.13 C516.14,528.85 486.50,543.43 469.25,546.98 C465.81,547.69 463.00,548.57 463.00,548.94 C463.00,549.30 469.41,550.85 477.25,552.38 C513.93,559.53 538.35,566.71 551.68,574.26 C578.63,589.53 595.26,607.14 605.70,631.48 C618.82,662.07 621.80,714.80 612.56,752.64 C597.04,816.20 557.33,867.88 503.22,894.97 C475.69,908.75 438.39,919.45 404.00,923.43 ZM 491.17 213.24 C495.75,215.17 499.84,216.55 500.25,216.31 C500.66,216.08 501.00,214.22 501.00,212.19 C501.00,199.66 513.54,174.42 527.17,159.50 C536.86,148.90 556.45,138.29 575.92,133.10 C592.88,128.57 607.77,127.39 630.64,128.74 C656.34,130.27 667.53,129.07 684.04,123.05 C711.58,112.99 723.40,97.48 721.70,73.59 C720.89,62.30 717.69,55.48 709.18,46.97 C703.81,41.61 700.38,39.25 691.99,35.18 C668.89,23.99 642.86,21.57 614.20,27.95 C595.84,32.04 554.25,48.56 534.60,59.57 C496.98,80.64 479.16,101.67 462.41,144.74 C455.05,163.67 449.02,189.25 450.51,195.19 C451.00,197.11 453.14,198.22 463.24,201.76 C469.91,204.10 475.70,205.68 476.09,205.26 C476.48,204.84 478.49,200.68 480.56,196.00 C491.46,171.39 497.07,159.82 501.17,153.50 C510.42,139.24 526.83,124.31 541.01,117.28 C544.58,115.51 553.12,112.43 560.00,110.44 C566.88,108.46 577.90,105.27 584.50,103.37 C597.72,99.56 612.58,93.96 618.00,90.76 C626.39,85.80 634.36,75.93 633.81,71.18 C633.47,68.20 628.21,65.08 620.00,62.95 C610.49,60.49 607.04,60.71 589.49,64.89 C558.94,72.17 546.41,76.30 534.93,82.86 C526.70,87.56 507.02,103.25 497.25,112.91 C489.12,120.95 487.65,123.00 482.72,133.18 C479.71,139.41 476.52,146.75 475.63,149.50 C473.26,156.83 465.02,193.05 465.01,196.19 C465.00,199.16 463.50,200.75 462.70,198.66 C462.02,196.89 469.28,155.72 471.48,148.88 C472.43,145.92 475.88,137.96 479.13,131.20 C484.57,119.90 485.80,118.15 494.27,109.68 C499.35,104.61 508.05,96.78 513.60,92.28 C535.03,74.95 545.64,70.22 583.92,60.95 C610.54,54.50 616.46,54.56 631.15,61.42 C638.23,64.72 639.34,66.07 639.29,71.30 C639.22,78.70 632.66,87.61 622.30,94.39 C615.86,98.61 597.29,105.61 579.89,110.39 C570.75,112.89 559.57,116.12 555.04,117.55 C533.77,124.27 512.74,142.72 501.25,164.74 C494.27,178.11 481.80,207.04 482.37,208.52 C482.63,209.19 486.59,211.32 491.17,213.24 ZM 495.20 340.87 C483.54,343.35 473.61,341.19 465.26,334.35 C453.84,325.00 449.28,305.96 454.02,287.41 C457.91,272.21 465.37,265.00 477.21,265.00 C480.63,265.00 484.47,264.23 487.14,263.02 C496.48,258.79 503.80,260.96 513.76,270.92 C528.31,285.47 532.76,303.30 525.32,317.26 C521.72,324.02 510.77,335.02 505.00,337.68 C502.52,338.82 498.12,340.26 495.20,340.87 ZM 82.20 639.32 C76.32,642.49 67.67,643.75 64.50,641.90 C58.37,638.31 54.93,632.88 53.07,623.86 C51.69,617.19 51.56,593.03 52.85,584.50 C53.57,579.73 53.47,578.34 52.38,577.70 C49.91,576.27 50.91,573.17 55.50,568.00 C57.97,565.21 60.00,562.36 60.00,561.66 C60.00,559.96 66.79,553.45 67.66,554.32 C68.03,554.70 67.36,556.05 66.17,557.32 C62.85,560.85 63.54,561.98 67.75,559.92 C79.91,553.97 100.47,556.39 109.34,564.80 C118.57,573.56 119.56,590.83 111.73,606.50 C104.83,620.30 92.90,633.56 82.20,639.32 ZM 483.00 336.22 C484.38,336.42 487.52,336.38 490.00,336.15 C505.85,334.67 521.55,320.01 523.62,304.75 C525.51,290.93 507.51,266.15 495.49,266.02 C494.39,266.01 491.26,267.18 488.54,268.63 C484.30,270.89 483.18,271.11 480.55,270.17 C474.10,267.86 466.67,271.46 462.78,278.77 C455.80,291.90 455.67,310.94 462.48,322.56 C467.20,330.60 473.65,334.90 483.00,336.22 ZM 390.12 810.52 C382.48,811.87 363.11,812.33 357.00,811.31 C355.62,811.08 352.25,810.18 349.50,809.31 C331.20,803.51 316.97,790.40 307.09,770.25 C295.01,745.61 290.54,720.62 290.70,678.50 C290.78,657.06 291.16,651.08 293.37,636.50 C296.94,612.84 302.87,590.17 310.56,570.77 C316.51,555.75 319.51,552.30 322.99,556.48 C324.00,557.71 323.80,558.13 321.82,558.88 C319.99,559.57 318.59,561.98 315.83,569.14 C308.27,588.75 301.91,612.23 299.59,629.03 C296.25,653.26 295.96,657.14 295.96,679.00 C295.94,719.88 301.07,747.76 312.79,770.45 C319.17,782.81 331.53,795.45 342.18,800.51 C362.81,810.31 386.76,808.97 422.00,796.05 C451.99,785.06 474.21,771.20 493.35,751.56 C519.69,724.50 533.02,698.63 532.99,674.59 C532.97,663.68 531.49,657.63 526.51,648.16 C518.72,633.32 503.79,619.63 480.64,606.09 C475.38,603.01 464.31,596.51 456.04,591.64 C447.76,586.77 439.08,582.22 436.74,581.53 C433.69,580.63 432.50,579.75 432.50,578.39 C432.50,575.30 437.34,575.50 444.57,578.89 C453.59,583.11 491.90,606.17 501.17,612.96 C529.81,633.93 541.70,656.84 538.02,684.00 C535.70,701.17 526.90,720.04 513.04,737.57 C504.44,748.45 489.78,763.26 480.29,770.67 C456.44,789.28 420.53,805.15 390.12,810.52 ZM 63.77 636.04 C73.27,643.51 95.65,627.62 106.55,605.66 C110.74,597.21 111.38,595.07 111.79,588.15 C112.48,576.12 109.89,570.36 101.58,565.49 C90.53,559.02 73.09,560.63 61.72,569.18 C55.32,573.99 53.46,615.90 59.07,628.95 C60.29,631.77 62.40,634.96 63.77,636.04 ZM 342.62 189.46 C343.32,191.27 341.46,192.29 340.30,190.74 C339.79,190.06 338.31,185.00 337.02,179.50 C332.96,162.27 328.36,151.52 322.84,146.41 C317.87,141.81 304.37,132.69 297.17,129.07 C282.58,121.74 260.80,116.62 239.50,115.50 C216.16,114.27 205.24,110.20 194.25,98.63 C185.64,89.56 181.51,81.70 182.29,75.86 C184.28,61.05 213.32,52.82 242.16,58.88 C255.82,61.76 262.67,64.26 277.50,71.78 C290.41,78.32 290.60,78.47 304.82,92.93 C331.04,119.59 344.08,139.97 349.34,162.50 C350.88,169.10 352.86,176.84 353.74,179.70 C355.07,184.04 355.11,185.16 354.00,186.50 C352.92,187.80 352.45,187.86 351.49,186.80 C349.37,184.45 346.20,175.65 344.55,167.50 C341.23,151.05 336.79,141.46 324.68,124.50 C317.54,114.51 296.57,91.69 287.00,83.50 C282.43,79.59 254.55,67.37 247.00,65.98 C244.52,65.52 240.70,64.66 238.50,64.07 C236.30,63.48 230.00,62.97 224.50,62.94 C203.53,62.83 188.00,69.06 188.00,77.57 C188.00,81.62 194.14,90.98 201.01,97.41 C210.30,106.10 218.90,108.58 248.00,110.94 C264.81,112.31 283.37,116.93 297.00,123.14 C308.75,128.50 326.53,141.72 330.55,148.07 C335.57,156.03 339.34,167.50 341.00,179.82 C341.61,184.39 342.34,188.73 342.62,189.46 ZM 334.53 334.92 C318.88,340.37 306.15,335.40 299.36,321.16 C297.01,316.25 296.66,314.30 296.73,306.50 C296.81,296.18 299.33,288.13 305.73,277.76 C309.14,272.24 316.60,265.26 317.80,266.47 C318.06,266.73 316.70,268.69 314.77,270.83 C309.86,276.27 304.36,285.98 302.35,292.76 C300.15,300.19 300.16,313.19 302.37,318.21 C306.11,326.74 314.46,332.93 322.28,332.98 C324.36,332.99 328.86,332.06 332.28,330.91 C348.79,325.37 363.90,310.81 363.98,300.38 C364.06,288.95 351.49,273.33 336.06,265.68 C328.47,261.92 326.92,261.51 320.56,261.58 C313.14,261.66 308.15,263.49 301.21,268.70 C298.51,270.72 297.64,270.94 296.42,269.93 C295.12,268.85 295.29,268.30 297.71,265.75 C301.49,261.77 308.22,258.54 315.74,257.10 C323.79,255.56 327.63,256.28 338.00,261.31 C353.10,268.63 367.20,285.42 368.67,297.86 C370.19,310.66 354.13,328.10 334.53,334.92 ZM 239.82 1000.59 C232.86,1004.12 225.73,1004.66 220.21,1002.07 C210.34,997.45 205.47,986.66 204.33,966.93 C203.67,955.44 205.22,947.92 208.94,944.56 C210.96,942.73 219.13,942.68 218.92,944.50 C218.85,945.05 218.31,945.36 217.71,945.19 C214.85,944.36 212.14,946.20 210.61,950.01 C207.32,958.23 209.12,979.47 213.90,988.78 C219.51,999.73 230.31,1001.37 241.69,993.00 C253.19,984.54 257.04,969.57 250.56,958.51 C244.13,947.54 226.64,937.06 213.33,936.21 C206.62,935.78 205.99,935.92 203.54,938.37 C199.40,942.50 196.22,941.30 198.08,936.30 C200.35,930.20 214.31,928.78 226.33,933.41 C246.49,941.18 259.25,955.61 259.25,970.64 C259.25,982.12 250.91,994.97 239.82,1000.59 ZM 565.11 1002.95 C558.43,1006.35 552.22,1006.68 548.05,1003.84 C543.36,1000.64 541.22,996.60 540.12,988.84 C538.22,975.46 544.08,959.85 553.92,952.06 C558.63,948.34 563.37,947.95 565.08,951.15 C566.07,953.00 566.00,953.21 564.55,952.66 C560.30,951.03 552.45,958.62 548.37,968.32 C541.93,983.58 545.46,1000.00 555.17,1000.00 C566.64,1000.00 587.49,974.85 591.15,956.60 C592.10,951.85 592.01,950.32 590.54,946.48 C588.12,940.14 583.73,938.00 573.15,938.00 C567.20,938.00 565.08,937.64 564.67,936.57 C563.60,933.80 567.03,932.50 575.40,932.50 C582.50,932.50 584.10,932.85 588.35,935.35 C594.42,938.92 597.40,944.82 597.19,952.90 C597.03,959.35 595.86,963.27 591.39,972.27 C585.10,984.96 573.24,998.79 565.11,1002.95 ZM 453.00 476.87 C444.65,478.02 400.00,478.06 381.64,476.93 C367.82,476.09 365.85,475.12 368.31,470.36 C369.13,468.77 371.45,462.76 373.46,456.99 C376.14,449.29 377.05,445.17 376.85,441.50 C376.65,437.57 376.93,436.44 378.20,436.20 C380.40,435.78 381.17,437.34 381.22,442.30 C381.26,446.21 377.30,459.70 373.62,468.21 L 372.01 471.91 L 375.65 472.59 C377.65,472.97 388.78,473.32 400.39,473.36 C425.22,473.46 427.00,473.05 427.00,467.18 C427.00,462.03 422.26,452.75 415.93,445.51 C411.22,440.14 410.97,439.60 412.51,438.11 C414.04,436.62 414.57,436.94 419.46,442.27 C426.74,450.22 431.19,459.51 431.37,467.10 L 431.50 472.98 L 439.00 472.93 C450.34,472.85 460.40,470.87 460.83,468.64 C461.21,466.65 455.63,456.92 450.25,450.22 C446.86,445.99 446.50,443.00 449.40,443.00 C451.32,443.00 453.27,445.03 457.90,451.86 C464.85,462.11 467.43,467.88 466.38,470.85 C465.18,474.27 462.21,475.61 453.00,476.87 ZM 725.50 621.84 C720.33,623.17 711.06,623.99 708.50,623.35 C707.40,623.07 704.89,622.44 702.93,621.93 C698.00,620.67 692.42,614.78 690.41,608.73 C686.30,596.37 692.22,579.59 701.75,576.58 C705.00,575.55 704.50,577.21 700.95,579.23 C698.97,580.35 697.00,582.93 695.33,586.59 C693.10,591.46 692.81,593.20 693.22,599.50 C693.96,611.02 698.92,617.12 708.76,618.59 C728.79,621.59 759.00,599.41 759.00,581.70 C759.00,572.29 751.47,567.00 738.09,567.00 C729.66,567.00 727.60,565.97 730.42,563.15 C731.66,561.93 733.81,561.52 738.79,561.58 C759.99,561.83 769.59,575.68 761.06,593.70 C755.71,605.02 738.75,618.44 725.50,621.84 ZM 487.50 437.55 C487.50,439.99 485.95,440.14 478.50,438.46 C463.65,435.11 449.11,434.52 381.79,434.51 C321.42,434.50 314.92,434.34 313.44,432.87 C311.93,431.36 314.19,431.17 343.65,430.43 C392.09,429.21 443.63,429.39 459.50,430.82 C477.39,432.44 487.50,434.87 487.50,437.55 ZM 492.27 305.16 C487.44,308.35 484.88,307.61 482.09,302.23 C481.14,300.41 481.21,299.53 482.46,297.76 C483.30,296.55 484.00,294.77 484.00,293.81 C484.00,292.85 484.87,291.60 485.93,291.04 C488.40,289.72 492.00,289.70 492.00,291.00 C492.00,291.55 492.81,292.00 493.80,292.00 C496.34,292.00 498.01,293.97 497.97,296.95 C497.93,299.97 496.06,302.66 492.27,305.16 ZM 335.78 303.44 C334.56,304.30 332.98,305.00 332.28,305.00 C330.11,305.00 326.86,300.99 327.16,298.69 C327.31,297.48 327.08,295.92 326.63,295.21 C324.79,292.24 332.05,288.93 336.97,290.49 C341.90,292.05 341.20,299.64 335.78,303.44 ZM 487.00 300.67 C487.00,302.90 489.73,302.16 491.96,299.33 C494.89,295.60 492.96,293.75 489.51,296.99 C488.13,298.29 487.00,299.95 487.00,300.67 ZM 332.15 298.03 C331.85,300.10 332.01,300.24 333.40,299.08 C335.29,297.51 335.55,294.65 333.75,295.24 C333.06,295.47 332.34,296.72 332.15,298.03 Z" fill="rgb(6,5,6)"/>
<path d="M 396.57 396.53 L 396.39 396.58 C393.54,397.43 392.09,397.87 390.65,397.81 C389.13,397.75 387.63,397.15 384.50,395.91 C378.30,393.46 375.40,390.31 374.52,385.09 C373.09,376.68 379.31,364.41 386.92,360.57 C390.79,358.63 397.21,357.91 401.01,359.00 C405.50,360.29 416.00,371.19 416.00,374.56 C416.00,382.15 405.68,393.81 396.57,396.53 Z" fill="rgb(107,82,81)"/>
<path d="M 0.00 522.50 L 0.00 0.00 L 408.50 0.00 L 817.00 0.00 L 817.00 522.50 L 817.00 1045.00 L 408.50 1045.00 L 0.00 1045.00 L 0.00 522.50 ZM 565.11 1002.95 C573.24,998.79 585.10,984.96 591.39,972.27 C595.86,963.27 597.03,959.35 597.19,952.90 C597.40,944.82 594.42,938.92 588.35,935.35 C584.10,932.85 582.50,932.50 575.40,932.50 C567.03,932.50 563.60,933.80 564.67,936.57 C565.08,937.64 567.20,938.00 573.15,938.00 C583.73,938.00 588.12,940.14 590.54,946.48 C592.01,950.32 592.10,951.85 591.15,956.60 C587.49,974.85 566.64,1000.00 555.17,1000.00 C545.46,1000.00 541.93,983.58 548.37,968.32 C552.45,958.62 560.30,951.03 564.55,952.66 C566.00,953.21 566.07,953.00 565.08,951.15 C563.37,947.95 558.63,948.34 553.92,952.06 C544.08,959.85 538.22,975.46 540.12,988.84 C541.22,996.60 543.36,1000.64 548.05,1003.84 C552.22,1006.68 558.43,1006.35 565.11,1002.95 ZM 239.82 1000.59 C250.91,994.97 259.25,982.12 259.25,970.64 C259.25,955.61 246.49,941.18 226.33,933.41 C214.31,928.78 200.35,930.20 198.08,936.30 C196.22,941.30 199.40,942.50 203.54,938.37 C205.99,935.92 206.62,935.78 213.33,936.21 C226.64,937.06 244.13,947.54 250.56,958.51 C257.04,969.57 253.19,984.54 241.69,993.00 C230.31,1001.37 219.51,999.73 213.90,988.78 C209.12,979.47 207.32,958.23 210.61,950.01 C212.14,946.20 214.85,944.36 217.71,945.19 C218.31,945.36 218.85,945.05 218.92,944.50 C219.13,942.68 210.96,942.73 208.94,944.56 C205.22,947.92 203.67,955.44 204.33,966.93 C205.47,986.66 210.34,997.45 220.21,1002.07 C225.73,1004.66 232.86,1004.12 239.82,1000.59 ZM 404.00 923.43 C438.39,919.45 475.69,908.75 503.22,894.97 C557.33,867.88 597.04,816.20 612.56,752.64 C621.80,714.80 618.82,662.07 605.70,631.48 C595.26,607.14 578.63,589.53 551.68,574.26 C538.35,566.71 513.93,559.53 477.25,552.38 C469.41,550.85 463.00,549.30 463.00,548.94 C463.00,548.57 465.81,547.69 469.25,546.98 C486.50,543.43 516.14,528.85 532.00,516.13 C551.86,500.19 566.85,481.45 579.50,456.75 C582.80,450.30 585.99,445.02 586.58,445.01 C587.83,445.00 617.36,457.26 627.00,461.79 C630.58,463.47 634.90,465.79 636.62,466.94 C639.33,468.76 639.89,468.84 640.95,467.56 C641.62,466.75 641.89,465.62 641.54,465.06 C639.78,462.21 630.40,457.45 609.72,448.91 C589.31,440.48 587.00,439.29 587.53,437.50 C589.67,430.34 591.92,420.32 593.02,413.09 C594.54,403.03 593.74,379.77 591.54,370.00 C590.73,366.42 590.05,363.20 590.04,362.84 C589.98,361.78 608.16,360.68 627.50,360.59 C644.76,360.50 645.50,360.42 645.50,358.51 C645.50,356.88 644.54,356.38 640.00,355.68 C634.52,354.83 605.89,355.41 594.50,356.61 L 588.50 357.23 L 581.78 339.87 C578.08,330.31 572.75,315.88 569.94,307.80 C567.11,299.69 562.56,289.14 559.80,284.30 C554.20,274.48 538.98,251.45 532.46,242.96 C526.89,235.71 516.32,225.88 510.86,222.87 C506.84,220.66 506.47,220.13 506.17,215.99 C505.23,203.01 518.39,175.77 532.45,161.59 C542.02,151.94 560.30,142.50 578.39,137.87 C595.14,133.59 609.37,132.52 631.38,133.89 C660.40,135.69 676.16,133.05 696.77,122.94 C708.13,117.36 712.44,114.03 717.97,106.53 C724.29,97.97 726.48,90.37 726.49,77.00 C726.50,66.48 726.25,64.95 723.61,59.00 C716.27,42.46 698.44,29.62 674.12,23.33 C666.50,21.36 661.07,20.74 648.00,20.32 C632.97,19.83 630.39,20.01 619.00,22.35 C604.49,25.33 596.94,27.69 577.00,35.52 C540.35,49.91 518.92,61.96 499.34,79.20 C482.34,94.17 470.77,112.69 458.52,144.50 C451.05,163.91 447.98,176.96 447.65,190.61 L 447.50 197.16 L 441.50 197.54 C433.24,198.07 409.15,198.28 405.53,197.85 C399.38,197.12 401.91,204.13 408.26,205.40 C409.99,205.75 418.27,205.51 426.66,204.86 C448.91,203.15 454.86,204.51 486.50,218.50 C500.16,224.54 500.55,224.81 502.70,229.25 C503.90,231.76 505.93,234.54 507.20,235.44 C509.37,236.97 509.60,236.94 511.25,234.92 C512.88,232.92 513.17,232.88 515.37,234.32 C520.41,237.63 533.59,254.99 546.99,276.00 C555.95,290.05 559.34,297.25 565.87,316.11 C568.66,324.15 573.23,336.47 576.04,343.49 C579.04,351.02 580.77,356.63 580.24,357.16 C579.75,357.65 573.98,358.70 567.42,359.48 C521.64,364.96 471.03,375.99 452.22,384.59 C449.32,385.91 446.56,387.00 446.10,387.00 C445.63,387.00 444.72,387.63 444.07,388.41 C441.71,391.26 445.02,390.98 455.18,387.47 C469.83,382.42 484.50,378.67 507.50,374.10 C537.98,368.04 581.41,362.01 583.02,363.62 C584.84,365.44 587.08,382.93 587.15,395.81 C587.19,403.13 587.01,409.32 586.76,409.57 C586.51,409.82 584.30,409.13 581.84,408.05 C576.46,405.67 563.81,402.62 547.50,399.77 C537.19,397.97 531.20,397.67 505.00,397.59 C478.39,397.51 473.79,397.73 468.91,399.28 C461.76,401.54 459.48,403.19 460.35,405.46 C460.81,406.66 461.56,406.98 462.76,406.47 C474.10,401.66 488.30,400.44 515.54,401.93 C539.86,403.26 552.51,405.01 568.00,409.17 C574.33,410.87 581.01,412.48 582.86,412.75 L 586.23 413.25 L 585.60 417.96 C584.75,424.34 582.11,434.28 580.96,435.44 C580.38,436.02 577.10,435.31 572.26,433.56 C541.94,422.56 514.16,413.84 500.14,410.94 C490.41,408.92 477.00,408.33 477.00,409.91 C477.00,410.41 480.26,411.34 484.25,411.98 C496.79,413.99 511.66,417.83 529.37,423.62 C553.75,431.59 579.00,441.04 579.00,442.19 C579.00,444.24 569.92,461.85 564.41,470.50 C547.44,497.12 530.31,512.80 501.86,527.75 C484.65,536.80 469.65,541.65 449.90,544.55 C439.84,546.03 438.56,546.01 424.53,544.04 C412.92,542.41 409.08,542.20 406.62,543.08 C404.04,544.00 401.76,543.74 393.50,541.62 C362.76,533.72 335.18,521.77 315.68,507.90 C300.84,497.35 284.70,479.20 275.66,462.90 L 272.00 456.31 L 281.84 445.40 C305.25,419.47 336.98,391.05 344.14,389.62 C347.27,389.00 348.90,386.50 347.25,384.85 C345.92,383.52 337.83,387.63 329.84,393.70 C317.36,403.19 285.50,434.00 274.25,447.46 L 270.11 452.42 L 267.95 447.46 C263.48,437.19 260.93,429.67 261.70,429.02 C267.57,424.01 287.36,410.06 296.04,404.80 C315.13,393.24 340.69,382.92 354.25,381.29 C356.86,380.98 359.00,380.37 359.00,379.94 C359.00,378.37 352.77,377.85 347.71,379.01 C319.70,385.40 300.07,395.52 261.43,423.46 C260.70,424.00 259.89,424.22 259.63,423.96 C258.88,423.21 252.23,396.81 251.85,393.09 L 251.50 389.67 L 261.50 386.37 C278.21,380.85 299.50,375.97 315.50,373.99 C328.93,372.32 351.36,372.53 355.02,374.36 C356.65,375.17 358.20,375.48 358.47,375.05 C359.32,373.68 355.64,371.28 351.50,370.51 C345.81,369.45 322.49,369.76 312.20,371.03 C300.19,372.51 274.62,378.25 262.00,382.30 C252.96,385.20 251.38,385.46 250.61,384.18 C249.23,381.85 250.65,343.71 252.50,333.50 C260.57,288.89 278.79,250.26 304.19,223.88 C322.56,204.81 350.42,192.51 378.06,191.26 C390.16,190.72 403.26,192.53 409.13,195.57 C412.27,197.19 414.00,197.40 414.00,196.15 C414.00,194.52 401.37,188.90 394.46,187.46 C376.85,183.77 352.48,187.81 331.50,197.90 L 321.50 202.70 L 320.90 193.10 C320.22,182.25 318.32,176.45 311.97,165.96 C307.55,158.64 298.35,148.78 293.66,146.34 C286.78,142.75 279.62,142.25 255.50,143.68 C231.10,145.13 220.34,144.85 205.00,142.37 C185.42,139.20 169.27,132.06 151.25,118.62 C121.41,96.35 114.79,77.15 128.21,51.79 C135.91,37.22 144.88,29.71 160.13,25.07 C171.57,21.59 181.83,20.71 204.84,21.25 C223.31,21.69 228.34,22.16 239.00,24.45 C262.76,29.55 279.64,36.38 295.18,47.17 C321.41,65.37 336.38,87.60 357.09,139.13 C367.21,164.30 370.69,176.84 368.00,178.50 C366.19,179.62 366.95,182.02 369.47,183.17 C375.59,185.95 376.59,178.00 371.96,163.50 C365.97,144.74 350.41,108.22 341.71,92.50 C328.25,68.18 314.44,53.02 293.43,39.47 C268.00,23.08 228.88,13.78 192.00,15.36 C155.46,16.93 138.14,24.73 125.87,45.15 C118.90,56.75 116.63,63.92 116.58,74.51 C116.54,85.21 118.27,90.67 124.53,99.50 C133.86,112.66 150.26,126.19 168.00,135.34 C192.56,148.02 213.27,151.23 254.01,148.69 C278.48,147.16 285.20,147.50 291.15,150.58 C297.16,153.68 305.35,163.14 310.22,172.58 C315.48,182.81 316.60,186.54 317.53,197.06 L 318.20 204.62 L 311.81 209.31 C290.83,224.72 267.52,260.59 256.47,294.50 C247.54,321.89 244.70,339.03 244.46,367.00 L 244.28 388.50 L 234.89 392.50 C213.98,401.42 188.15,417.24 172.75,430.56 C165.74,436.63 163.83,439.50 165.63,441.30 C165.97,441.64 170.06,438.59 174.70,434.52 C184.64,425.81 196.28,417.73 211.50,408.96 C222.58,402.58 242.47,393.02 244.70,393.01 C245.37,393.00 246.20,394.69 246.56,396.75 C246.91,398.81 247.82,402.75 248.56,405.50 C249.31,408.25 250.80,413.88 251.87,418.00 C252.94,422.12 254.10,426.21 254.45,427.08 C254.91,428.22 252.50,430.86 245.87,436.50 C223.77,455.30 203.95,476.83 205.37,480.51 C206.34,483.05 207.66,482.21 212.83,475.75 C220.46,466.21 253.70,434.10 256.02,434.02 C256.30,434.01 257.84,437.49 259.44,441.75 C261.04,446.01 263.19,451.23 264.24,453.34 L 266.14 457.19 L 261.26 462.84 C245.00,481.69 212.19,533.40 213.72,537.75 C214.72,540.56 217.15,538.65 220.10,532.75 C225.33,522.32 238.87,500.41 248.32,487.09 C258.08,473.32 266.97,462.00 268.02,462.00 C268.38,462.00 269.95,464.33 271.51,467.19 C279.40,481.70 296.08,500.45 310.95,511.54 C329.02,525.01 357.49,537.88 387.50,546.15 C403.07,550.44 413.69,551.99 427.52,552.00 C436.20,552.00 444.39,552.82 457.02,554.95 C521.47,565.84 547.02,574.60 570.50,593.87 C599.15,617.38 612.28,651.78 612.34,703.50 C612.38,730.45 608.84,750.84 599.94,775.03 C576.42,838.95 534.61,880.60 472.50,901.99 C399.69,927.05 343.44,925.43 301.28,897.04 C266.97,873.94 241.94,837.80 231.63,796.50 C223.92,765.62 223.70,729.95 230.98,694.00 C237.43,662.21 245.57,637.90 258.98,610.42 C278.49,570.41 299.89,538.85 312.58,531.37 C313.64,530.74 314.20,529.92 313.83,529.53 C312.58,528.22 304.55,533.87 297.92,540.71 C278.74,560.49 249.45,613.37 237.64,649.53 C219.40,705.40 215.77,753.53 226.52,797.00 C232.65,821.79 241.43,840.70 256.01,860.50 C271.73,881.85 291.06,898.59 313.50,910.29 C337.79,922.96 368.99,927.49 404.00,923.43 ZM 390.12 810.52 C420.53,805.15 456.44,789.28 480.29,770.67 C489.78,763.26 504.44,748.45 513.04,737.57 C526.90,720.04 535.70,701.17 538.02,684.00 C541.70,656.84 529.81,633.93 501.17,612.96 C491.90,606.17 453.59,583.11 444.57,578.89 C437.34,575.50 432.50,575.30 432.50,578.39 C432.50,579.75 433.69,580.63 436.74,581.53 C439.08,582.22 447.76,586.77 456.04,591.64 C464.31,596.51 475.38,603.01 480.64,606.09 C503.79,619.63 518.72,633.32 526.51,648.16 C531.49,657.63 532.97,663.68 532.99,674.59 C533.02,698.63 519.69,724.50 493.35,751.56 C474.21,771.20 451.99,785.06 422.00,796.05 C386.76,808.97 362.81,810.31 342.18,800.51 C331.53,795.45 319.17,782.81 312.79,770.45 C301.07,747.76 295.94,719.88 295.96,679.00 C295.96,657.14 296.25,653.26 299.59,629.03 C301.91,612.23 308.27,588.75 315.83,569.14 C318.59,561.98 319.99,559.57 321.82,558.88 C323.80,558.13 324.00,557.71 322.99,556.48 C319.51,552.30 316.51,555.75 310.56,570.77 C302.87,590.17 296.94,612.84 293.37,636.50 C291.16,651.08 290.78,657.06 290.70,678.50 C290.54,720.62 295.01,745.61 307.09,770.25 C316.97,790.40 331.20,803.51 349.50,809.31 C352.25,810.18 355.62,811.08 357.00,811.31 C363.11,812.33 382.48,811.87 390.12,810.52 ZM 82.20 639.32 C92.90,633.56 104.83,620.30 111.73,606.50 C119.56,590.83 118.57,573.56 109.34,564.80 C100.47,556.39 79.91,553.97 67.75,559.92 C63.54,561.98 62.85,560.85 66.17,557.32 C67.36,556.05 68.03,554.70 67.66,554.32 C66.79,553.45 60.00,559.96 60.00,561.66 C60.00,562.36 57.97,565.21 55.50,568.00 C50.91,573.17 49.91,576.27 52.38,577.70 C53.47,578.34 53.57,579.73 52.85,584.50 C51.56,593.03 51.69,617.19 53.07,623.86 C54.93,632.88 58.37,638.31 64.50,641.90 C67.67,643.75 76.32,642.49 82.20,639.32 ZM 725.50 621.84 C738.75,618.44 755.71,605.02 761.06,593.70 C769.59,575.68 759.99,561.83 738.79,561.58 C733.81,561.52 731.66,561.93 730.42,563.15 C727.60,565.97 729.66,567.00 738.09,567.00 C751.47,567.00 759.00,572.29 759.00,581.70 C759.00,599.41 728.79,621.59 708.76,618.59 C698.92,617.12 693.96,611.02 693.22,599.50 C692.81,593.20 693.10,591.46 695.33,586.59 C697.00,582.93 698.97,580.35 700.95,579.23 C704.50,577.21 705.00,575.55 701.75,576.58 C692.22,579.59 686.30,596.37 690.41,608.73 C692.42,614.78 698.00,620.67 702.93,621.93 C704.89,622.44 707.40,623.07 708.50,623.35 C711.06,623.99 720.33,623.17 725.50,621.84 ZM 453.00 476.87 C462.21,475.61 465.18,474.27 466.38,470.85 C467.43,467.88 464.85,462.11 457.90,451.86 C453.27,445.03 451.32,443.00 449.40,443.00 C446.50,443.00 446.86,445.99 450.25,450.22 C455.63,456.92 461.21,466.65 460.83,468.64 C460.40,470.87 450.34,472.85 439.00,472.93 L 431.50 472.98 L 431.37 467.10 C431.19,459.51 426.74,450.22 419.46,442.27 C414.57,436.94 414.04,436.62 412.51,438.11 C410.97,439.60 411.22,440.14 415.93,445.51 C422.26,452.75 427.00,462.03 427.00,467.18 C427.00,473.05 425.22,473.46 400.39,473.36 C388.78,473.32 377.65,472.97 375.65,472.59 L 372.01 471.91 L 373.62 468.21 C377.30,459.70 381.26,446.21 381.22,442.30 C381.17,437.34 380.40,435.78 378.20,436.20 C376.93,436.44 376.65,437.57 376.85,441.50 C377.05,445.17 376.14,449.29 373.46,456.99 C371.45,462.76 369.13,468.77 368.31,470.36 C365.85,475.12 367.82,476.09 381.64,476.93 C400.00,478.06 444.65,478.02 453.00,476.87 ZM 487.50 437.55 C487.50,434.87 477.39,432.44 459.50,430.82 C443.63,429.39 392.09,429.21 343.65,430.43 C314.19,431.17 311.93,431.36 313.44,432.87 C314.92,434.34 321.42,434.50 381.79,434.51 C449.11,434.52 463.65,435.11 478.50,438.46 C485.95,440.14 487.50,439.99 487.50,437.55 ZM 396.57 396.53 C405.68,393.81 416.00,382.15 416.00,374.56 C416.00,371.19 405.50,360.29 401.01,359.00 C397.21,357.91 390.79,358.63 386.92,360.57 C379.31,364.41 373.09,376.68 374.52,385.09 C375.40,390.31 378.30,393.46 384.50,395.91 C390.64,398.34 390.52,398.33 396.57,396.53 ZM 495.20 340.87 C498.12,340.26 502.52,338.82 505.00,337.68 C510.77,335.02 521.72,324.02 525.32,317.26 C532.76,303.30 528.31,285.47 513.76,270.92 C503.80,260.96 496.48,258.79 487.14,263.02 C484.47,264.23 480.63,265.00 477.21,265.00 C465.37,265.00 457.91,272.21 454.02,287.41 C449.28,305.96 453.84,325.00 465.26,334.35 C473.61,341.19 483.54,343.35 495.20,340.87 ZM 334.53 334.92 C354.13,328.10 370.19,310.66 368.67,297.86 C367.20,285.42 353.10,268.63 338.00,261.31 C327.63,256.28 323.79,255.56 315.74,257.10 C308.22,258.54 301.49,261.77 297.71,265.75 C295.29,268.30 295.12,268.85 296.42,269.93 C297.64,270.94 298.51,270.72 301.21,268.70 C308.15,263.49 313.14,261.66 320.56,261.58 C326.92,261.51 328.47,261.92 336.06,265.68 C351.49,273.33 364.06,288.95 363.98,300.38 C363.90,310.81 348.79,325.37 332.28,330.91 C328.86,332.06 324.36,332.99 322.28,332.98 C314.46,332.93 306.11,326.74 302.37,318.21 C300.16,313.19 300.15,300.19 302.35,292.76 C304.36,285.98 309.86,276.27 314.77,270.83 C316.70,268.69 318.06,266.73 317.80,266.47 C316.60,265.26 309.14,272.24 305.73,277.76 C299.33,288.13 296.81,296.18 296.73,306.50 C296.66,314.30 297.01,316.25 299.36,321.16 C306.15,335.40 318.88,340.37 334.53,334.92 ZM 335.78 303.44 C341.20,299.64 341.90,292.05 336.97,290.49 C332.05,288.93 324.79,292.24 326.63,295.21 C327.08,295.92 327.31,297.48 327.16,298.69 C326.86,300.99 330.11,305.00 332.28,305.00 C332.98,305.00 334.56,304.30 335.78,303.44 ZM 342.62 189.46 C342.34,188.73 341.61,184.39 341.00,179.82 C339.34,167.50 335.57,156.03 330.55,148.07 C326.53,141.72 308.75,128.50 297.00,123.14 C283.37,116.93 264.81,112.31 248.00,110.94 C218.90,108.58 210.30,106.10 201.01,97.41 C194.14,90.98 188.00,81.62 188.00,77.57 C188.00,69.06 203.53,62.83 224.50,62.94 C230.00,62.97 236.30,63.48 238.50,64.07 C240.70,64.66 244.52,65.52 247.00,65.98 C254.55,67.37 282.43,79.59 287.00,83.50 C296.57,91.69 317.54,114.51 324.68,124.50 C336.79,141.46 341.23,151.05 344.55,167.50 C346.20,175.65 349.37,184.45 351.49,186.80 C352.45,187.86 352.92,187.80 354.00,186.50 C355.11,185.16 355.07,184.04 353.74,179.70 C352.86,176.84 350.88,169.10 349.34,162.50 C344.08,139.97 331.04,119.59 304.82,92.93 C290.60,78.47 290.41,78.32 277.50,71.78 C262.67,64.26 255.82,61.76 242.16,58.88 C213.32,52.82 184.28,61.05 182.29,75.86 C181.51,81.70 185.64,89.56 194.25,98.63 C205.24,110.20 216.16,114.27 239.50,115.50 C260.80,116.62 282.58,121.74 297.17,129.07 C304.37,132.69 317.87,141.81 322.84,146.41 C328.36,151.52 332.96,162.27 337.02,179.50 C338.31,185.00 339.79,190.06 340.30,190.74 C341.46,192.29 343.32,191.27 342.62,189.46 ZM 491.17 213.24 C486.59,211.32 482.63,209.19 482.37,208.52 C481.80,207.04 494.27,178.11 501.25,164.74 C512.74,142.72 533.77,124.27 555.04,117.55 C559.57,116.12 570.75,112.89 579.89,110.39 C597.29,105.61 615.86,98.61 622.30,94.39 C632.66,87.61 639.22,78.70 639.29,71.30 C639.34,66.07 638.23,64.72 631.15,61.42 C616.46,54.56 610.54,54.50 583.92,60.95 C545.64,70.22 535.03,74.95 513.60,92.28 C508.05,96.78 499.35,104.61 494.27,109.68 C485.80,118.15 484.57,119.90 479.13,131.20 C475.88,137.96 472.43,145.92 471.48,148.88 C469.28,155.72 462.02,196.89 462.70,198.66 C463.50,200.75 465.00,199.16 465.01,196.19 C465.02,193.05 473.26,156.83 475.63,149.50 C476.52,146.75 479.71,139.41 482.72,133.18 C487.65,123.00 489.12,120.95 497.25,112.91 C507.02,103.25 526.70,87.56 534.93,82.86 C546.41,76.30 558.94,72.17 589.49,64.89 C607.04,60.71 610.49,60.49 620.00,62.95 C628.21,65.08 633.47,68.20 633.81,71.18 C634.36,75.93 626.39,85.80 618.00,90.76 C612.58,93.96 597.72,99.56 584.50,103.37 C577.90,105.27 566.88,108.46 560.00,110.44 C553.12,112.43 544.58,115.51 541.01,117.28 C526.83,124.31 510.42,139.24 501.17,153.50 C497.07,159.82 491.46,171.39 480.56,196.00 C478.49,200.68 476.48,204.84 476.09,205.26 C475.70,205.68 469.91,204.10 463.24,201.76 C453.14,198.22 451.00,197.11 450.51,195.19 C449.02,189.25 455.05,163.67 462.41,144.74 C479.16,101.67 496.98,80.64 534.60,59.57 C554.25,48.56 595.84,32.04 614.20,27.95 C642.86,21.57 668.89,23.99 691.99,35.18 C700.38,39.25 703.81,41.61 709.18,46.97 C717.69,55.48 720.89,62.30 721.70,73.59 C723.40,97.48 711.58,112.99 684.04,123.05 C667.53,129.07 656.34,130.27 630.64,128.74 C607.77,127.39 592.88,128.57 575.92,133.10 C556.45,138.29 536.86,148.90 527.17,159.50 C513.54,174.42 501.00,199.66 501.00,212.19 C501.00,214.22 500.66,216.08 500.25,216.31 C499.84,216.55 495.75,215.17 491.17,213.24 ZM 63.77 636.04 C62.40,634.96 60.29,631.77 59.07,628.95 C53.46,615.90 55.32,573.99 61.72,569.18 C73.09,560.63 90.53,559.02 101.58,565.49 C109.89,570.36 112.48,576.12 111.79,588.15 C111.38,595.07 110.74,597.21 106.55,605.66 C95.65,627.62 73.27,643.51 63.77,636.04 ZM 483.00 336.22 C473.65,334.90 467.20,330.60 462.48,322.56 C455.67,310.94 455.80,291.90 462.78,278.77 C466.67,271.46 474.10,267.86 480.55,270.17 C483.18,271.11 484.30,270.89 488.54,268.63 C491.26,267.18 494.39,266.01 495.49,266.02 C507.51,266.15 525.51,290.93 523.62,304.75 C521.55,320.01 505.85,334.67 490.00,336.15 C487.52,336.38 484.38,336.42 483.00,336.22 ZM 492.27 305.16 C496.06,302.66 497.93,299.97 497.97,296.95 C498.01,293.97 496.34,292.00 493.80,292.00 C492.81,292.00 492.00,291.55 492.00,291.00 C492.00,289.70 488.40,289.72 485.93,291.04 C484.87,291.60 484.00,292.85 484.00,293.81 C484.00,294.77 483.30,296.55 482.46,297.76 C481.21,299.53 481.14,300.41 482.09,302.23 C484.88,307.61 487.44,308.35 492.27,305.16 ZM 332.15 298.03 C332.34,296.72 333.06,295.47 333.75,295.24 C335.55,294.65 335.29,297.51 333.40,299.08 C332.01,300.24 331.85,300.10 332.15,298.03 ZM 487.00 300.67 C487.00,299.95 488.13,298.29 489.51,296.99 C492.96,293.75 494.89,295.60 491.96,299.33 C489.73,302.16 487.00,302.90 487.00,300.67 Z" fill="rgb(254,251,253)"/>
</g>
</svg>